<?xml version="1.0" encoding="utf-8"?>
<!-- Generator: Adobe Illustrator 21.1.0, SVG Export Plug-In . SVG Version: 6.00 Build 0)  -->
<svg version="1.1" id="Layer_1" xmlns="http://www.w3.org/2000/svg" xmlns:xlink="http://www.w3.org/1999/xlink" x="0px" y="0px"
	 viewBox="0 0 177.6 138.9" style="enable-background:new 0 0 177.6 138.9;" xml:space="preserve">
<style type="text/css">
	.st0{fill:url(#SVGID_1_);}
	.st1{fill:url(#SVGID_2_);}
	.st2{fill:url(#SVGID_3_);}
	.st3{fill:url(#SVGID_4_);}
	.st4{fill:url(#SVGID_5_);}
	.st5{fill:url(#SVGID_6_);}
	.st6{fill:url(#SVGID_7_);}
	.st7{fill:url(#SVGID_8_);}
	.st8{fill:url(#SVGID_9_);}
	.st9{fill:url(#SVGID_10_);}
	.st10{fill:#D1DABD;}
	.st11{fill:#A6D2C1;}
</style>
<g>
	<g>
		<path class="st11" d="M70.8,65.5c-5.5,0-10,4.5-10,10s4.5,10,10,10s10-4.5,10-10S76.3,65.5,70.8,65.5z"/>
		<path class="st11" d="M50.8,40.5h-5v-5c0-3.5-2.8-6.3-6.3-6.3s-6.3,2.8-6.3,6.3v5h-5c-3.5,0-6.3,2.8-6.3,6.3s2.8,6.3,6.3,6.3h5v5
			c0,3.5,2.8,6.3,6.3,6.3c3.5,0,6.3-2.8,6.3-6.3v-5h5c3.5,0,6.3-2.8,6.3-6.3S54.3,40.5,50.8,40.5z"/>
		<path class="st11" d="M135.5,48.8c3.2-10.4-2.4-19.4-11.6-21.1c-3-0.6-5.7-0.8-7.9-0.8c-4.6,0-7.3,0.8-7.3,0.8l4,33.1
			C112.6,60.8,132.4,59.2,135.5,48.8z M129.8,47.1c-1,3.2-6.6,5.6-12,6.8l-2.5-21c0.2,0,0.4,0,0.7,0c2.2,0,4.5,0.2,6.8,0.7
			c2.7,0.5,4.9,2,6.3,4.2C130.6,40.3,130.8,43.6,129.8,47.1z"/>
		<path class="st11" d="M117.2,70.9c-1.1,0-2.3,0-3.4,0l4.7,39.7c0,0,3.7,0.6,8.7,0.6c9.3,0,23.3-2.2,26.5-14.7
			C158.4,78.2,143.3,70.9,117.2,70.9z M147.8,95.1c-2.2,8.4-12.5,10.2-20.7,10.2c-1.2,0-2.3,0-3.3-0.1L120.5,77
			c13.5,0.4,22.7,3,26.2,7.6C147.4,85.4,149.6,88.2,147.8,95.1z"/>
		<path class="st11" d="M176.2,83.6c-1.8-5.7-5.3-10.7-10.2-14.6c-5.7-4.6-13.9-6-21.2-7.3c-0.5-0.1-1-0.2-1.5-0.3
			c1-0.8,2.2-1.7,3.4-2.7c4.6-3.9,9.4-9,9.4-19.7c0-7.7-3.2-13.9-9.5-18.6c-4-3-8.3-4.9-13-5.9L131.7,0h-19l1.7,13.9h-4l-1.8-13.8
			h-19l1.8,13.8H81.2l0,0c-0.6,0-20.5-0.8-27.2-1.9c-0.1,0-0.2-0.1-0.3-0.1l-1-3.2c-0.1-0.3-0.3-0.5-0.5-0.6
			c-0.5-0.2-11.6-5.3-25.9,1.3c-0.3,0.1-0.5,0.4-0.6,0.7l-0.5,2.6c-1.2,0.7-2.1,1.7-2.8,2.9c-0.5,0.9-0.9,1.8-1.4,2.6
			c-0.7,1.4-1.5,2.8-2.3,4.2c-5.4,8.6-7.9,18-9.2,24.3c-0.9,4.8-2,9.5-3.1,13.9c-6.3,24.3-6.3,37-6.4,46.2c0,1.1,0,2.2,0,3.2
			c-0.1,5.9,0.9,25.2,18.1,27.9c1.2,0.2,2.4,0.3,3.5,0.3c12.3,0,18.1-10.8,18.2-10.9l13.7-31.9c0.8-1.9,2.2-3.4,4-4.2
			c3.7,3.1,8.3,4.8,13.2,4.8c5.3,0,10.3-2,14.1-5.7h3.6c1.3,10.7,2.6,21.1,4.1,32.2l0.3,2.6h2.7c3.5,0,6.9,0,10.1-0.1l1.8,13.9h19
			l-1.8-13.9c1.4,0,2.7,0,4,0l1.8,13.9h19l-1.8-14.4c0.5-0.1,1.1-0.2,1.6-0.3c4-0.7,9.5-1.8,15.1-5.7c3.8-2.7,7-6.2,9.3-10.3
			C175.2,105.4,180,95.3,176.2,83.6z M39.4,70.5c-13,0-23.6-10.6-23.6-23.6s10.6-23.6,23.6-23.6S63,33.9,63,46.9
			S52.5,70.5,39.4,70.5z M70.8,88.1c-7,0-12.7-5.7-12.7-12.7s5.7-12.7,12.7-12.7s12.7,5.7,12.7,12.7S77.8,88.1,70.8,88.1z
			 M168.4,105.2c-1.3,2.3-3.6,5.6-7.5,8.3c-4.5,3.2-9.1,4-12.7,4.7c-1.3,0.2-2.7,0.4-4.1,0.6l-3.1,0.3l1.8,13.7h-6.9l-1.8-13.9h-2.6
			c-3,0-6.3,0-10,0h-3.4l1.8,13.9H113l-1.8-13.9h-2.7c-3.2,0-6.6,0-10.1,0.1c-4.1-31.4-7.3-58.4-11.1-99.2h11.2L96.7,6h6.9l1.8,13.8
			h16.1L119.7,6h6.9l1.8,13.8l2.3,0.3c4.7,0.6,8.7,2.3,12.6,5.2c1.7,1.3,7,5.2,7,13.8c0,8.1-3.5,11.8-7.3,15.1
			c-3,2.6-5.3,4.2-7.2,4.9l-12.5,5.6l13.3,1.8h0.1c1.6,0.2,3.1,0.4,4.6,0.7c0.9,0.2,1.7,0.3,2.6,0.5c6.5,1.1,14,2.4,18.5,6
			c3.9,3.1,6.7,7.2,8.2,11.7C173.5,94.9,169.6,103,168.4,105.2z"/>
	</g>
</g>
</svg>
