<?xml version="1.0" standalone="no"?>
<!DOCTYPE svg PUBLIC "-//W3C//DTD SVG 20010904//EN"
 "http://www.w3.org/TR/2001/REC-SVG-20010904/DTD/svg10.dtd">
<svg version="1.0" xmlns="http://www.w3.org/2000/svg"
 width="178.000000pt" height="178.000000pt" viewBox="0 0 178.000000 178.000000"
 preserveAspectRatio="xMidYMid meet">
<metadata>
Created by potrace 1.11, written by Peter Selinger 2001-2013
</metadata>
<g transform="translate(0.000000,178.000000) scale(0.100000,-0.100000)"
fill="#000000" stroke="none">
<path d="M905 1523 c4 -32 8 -62 9 -68 0 -6 -42 -10 -114 -9 -225 3 -270 9
-270 38 0 21 -69 38 -138 33 -60 -4 -132 -25 -132 -39 0 -4 0 -10 0 -13 0 -3
-9 -14 -19 -24 -32 -32 -117 -213 -134 -286 -9 -39 -30 -128 -47 -200 -44
-187 -57 -292 -56 -445 1 -126 3 -140 29 -192 49 -100 146 -142 249 -107 76
25 104 64 187 256 40 92 79 175 87 184 13 15 19 14 62 -8 62 -32 144 -28 202
11 45 30 70 25 71 -13 0 -14 2 -35 4 -46 6 -31 14 -95 20 -145 3 -25 8 -62 11
-82 l6 -38 63 0 63 0 8 -68 9 -67 97 -3 c96 -3 97 -3 92 20 -2 13 -7 44 -10
71 -6 43 -4 47 15 47 12 0 21 -6 22 -12 1 -33 10 -104 14 -115 3 -9 32 -13
100 -13 94 0 95 0 91 23 -3 12 -7 45 -11 73 l-5 51 41 7 c95 15 189 90 232
185 33 72 30 179 -6 253 -47 97 -134 154 -261 173 l-47 7 42 42 c102 100 109
248 16 344 -32 34 -92 70 -136 81 -19 6 -25 15 -27 46 -2 22 -6 55 -9 73 l-6
32 -95 0 -94 0 6 -70 c6 -61 5 -70 -10 -70 -20 0 -23 7 -31 83 l-6 57 -95 0
-95 0 6 -57z m135 -10 c2 -50 15 -120 24 -125 6 -4 43 -7 81 -5 55 1 70 5 69
17 0 8 -4 39 -8 68 l-7 52 34 0 c32 0 35 -3 41 -37 3 -21 6 -50 6 -65 0 -31 5
-35 50 -43 38 -7 63 -19 108 -52 41 -31 62 -72 66 -128 6 -92 -51 -161 -187
-225 l-79 -37 84 -12 c212 -31 273 -49 320 -95 52 -51 72 -100 72 -176 0 -141
-93 -234 -256 -256 -42 -6 -47 -9 -43 -28 2 -11 7 -42 10 -69 l6 -47 -34 0
c-35 0 -35 0 -43 58 -4 31 -6 63 -5 70 1 9 -21 12 -84 12 -78 0 -86 -2 -81
-17 3 -10 8 -42 11 -70 l6 -53 -35 0 c-31 0 -36 3 -37 25 -1 14 -3 30 -4 35
-1 6 -3 26 -4 45 l-1 35 -70 0 c-38 0 -69 3 -68 7 2 8 -11 133 -17 164 -2 9
-6 38 -9 65 -3 27 -9 69 -12 94 -3 25 -7 63 -9 85 -11 106 -17 161 -20 176 -2
8 -6 53 -10 100 -4 46 -8 91 -10 99 -2 8 -6 51 -10 95 -4 44 -7 85 -8 90 -1 6
23 12 54 15 49 4 56 7 53 25 -2 11 -6 41 -9 68 l-6 47 35 0 c20 0 36 -3 36 -7z
m-530 -199 c77 -42 120 -118 120 -212 0 -151 -162 -262 -309 -212 -100 34
-161 120 -157 225 5 182 187 286 346 199z m259 -378 c113 -59 69 -236 -59
-236 -39 0 -93 29 -109 58 -60 112 57 235 168 178z"/>
<path d="M1096 1301 c-4 -6 -5 -26 -2 -44 2 -17 10 -75 16 -127 6 -52 13 -104
15 -115 2 -11 4 -26 4 -33 2 -33 179 32 211 78 47 66 24 177 -45 220 -43 27
-186 42 -199 21z m183 -86 c29 -28 34 -92 10 -121 -14 -17 -97 -59 -104 -52
-5 5 -12 50 -20 128 -4 36 -10 69 -13 74 -3 5 17 7 48 3 39 -5 61 -14 79 -32z"/>
<path d="M1144 839 c3 -19 8 -59 11 -89 3 -30 7 -68 9 -85 3 -16 7 -62 11
-101 4 -39 11 -77 15 -84 9 -15 135 -15 194 1 100 27 156 87 161 176 5 80 -27
133 -103 169 -54 25 -96 34 -205 40 l-98 6 5 -33z m220 -50 c93 -25 129 -64
120 -133 -6 -49 -29 -83 -70 -102 -37 -18 -148 -34 -164 -24 -11 7 -19 57 -36
224 l-6 58 58 -6 c31 -3 75 -11 98 -17z"/>
<path d="M350 1262 c-12 -14 -18 -34 -16 -48 5 -27 -7 -37 -48 -39 -31 -2 -66
-35 -66 -64 0 -32 26 -54 71 -60 38 -5 44 -9 45 -31 2 -54 5 -60 34 -75 49
-25 90 9 90 74 0 29 2 31 38 31 45 0 72 24 72 63 0 14 -7 33 -16 41 -15 16
-20 17 -66 20 -19 1 -24 8 -29 45 -9 66 -72 91 -109 43z"/>
<path d="M684 919 c-89 -24 -99 -140 -16 -183 32 -17 43 -16 89 3 52 21 69 98
33 144 -25 32 -66 46 -106 36z"/>
</g>
</svg>
